<svg xmlns="http://www.w3.org/2000/svg" xmlns:xlink="http://www.w3.org/1999/xlink" width="335px" height="78px" viewBox="0 0 335 78"><title>Group 4 Copy 2@1x</title><desc>Created with Sketch.</desc><g id="Page-1" stroke="none" stroke-width="1" fill="none" fill-rule="evenodd"><g id="Artboard" transform="translate(-311.000000, -744.000000)" fill="#000000"><g id="Group-4-Copy-2" transform="translate(311.798264, 744.867353)"><path d="M182.64428,30.4 L182.64428,27.80468 L179.3792,26.92926 L179.3792,7.69368 L192.43952,30.4 L198.34178,30.4 L198.34178,4.59604 L201.60686,3.6096 L201.60686,1.01428 L190.80698,1.22358 L190.80698,3.8189 L194.07206,4.5924 L194.07206,23.23648 L181.22104,1.01428 L171.8444,1.22358 L171.8444,3.8189 L175.10948,4.57238 L175.10948,26.92926 L171.8444,27.80468 L171.8444,30.4 L182.64428,30.4 Z M211.437351,30.86046 C212.776871,30.86046 214.123367,30.52558 215.476841,29.85582 C216.830314,29.18606 218.079137,28.1674667 219.223311,26.80004 L218.95874,27.10398 L219.558191,30.69302 L226.423231,30.35814 L226.423231,27.76282 L223.4505,26.96202 L223.451171,14.32576 C223.451171,12.1899698 222.867735,10.5829179 221.700864,9.50460427 L221.441891,9.28163 C220.102371,8.20722333 218.204717,7.67002 215.748931,7.67002 C214.465224,7.67002 213.069891,7.80257667 211.562931,8.06769 C210.055971,8.33280333 208.395524,8.73047333 206.581591,9.2607 L206.581591,9.2607 L206.916471,15.1211 L210.139691,15.1211 L210.57582,12.0271 L211.030471,11.8928568 C211.345259,11.805788 211.649999,11.7309981 211.944694,11.6684872 L212.379201,11.58393 C213.090821,11.45835 213.767557,11.39556 214.409411,11.39556 C215.693117,11.39556 216.683804,11.6955567 217.381471,12.29555 C218.079137,12.8955433 218.427971,13.8792533 218.427971,15.24668 L218.427971,15.24668 L218.4273,17.96758 L213.990811,17.96758 C212.403619,17.96758 211.024746,18.1224838 209.854192,18.4322914 L209.365281,18.57455 C208.095527,18.9791967 207.111817,19.64198 206.414151,20.5629 C205.716484,21.48382 205.367651,22.7535733 205.367651,24.37216 C205.367651,26.4930667 205.953691,28.1046767 207.125771,29.20699 C208.297851,30.3093033 209.735044,30.86046 211.437351,30.86046 Z M213.630302,27.1614029 L213.279191,27.17678 C212.441991,27.17678 211.758277,26.9116667 211.228051,26.38144 C210.697824,25.8512133 210.432711,25.0279667 210.432711,23.9117 C210.432711,22.8791533 210.746661,22.11172 211.374561,21.6094 C212.002461,21.10708 213.139657,20.85592 214.786151,20.85592 L214.786151,20.85592 L218.4273,20.85592 L218.4273,24.64152 L218.230298,24.8186667 C217.628755,25.3395911 217.014808,25.7860978 216.388458,26.1581867 L215.916371,26.4233 C214.967544,26.92562 214.088484,27.17678 213.279191,27.17678 L213.630302,27.1614029 Z M237.802541,30.86046 C239.811821,30.86046 241.918774,30.2465133 244.123401,29.01862 L244.123401,29.01862 L243.160621,26.25586 C242.518768,26.50702 241.918774,26.71632 241.360641,26.88376 C240.802508,27.0512 240.286234,27.13492 239.811821,27.13492 C239.030434,27.13492 238.430441,26.8698067 238.011841,26.33958 C237.593241,25.8093533 237.383941,24.9442467 237.383941,23.74426 L237.383941,23.74426 L237.3826,11.52114 L243.160621,11.52114 L243.244341,8.13048 L237.3826,8.13048 L237.383941,2.31194 L232.318881,3.191 L232.31754,8.1141 L228.886361,8.80024 L228.886361,11.52114 L232.31754,11.52114 L232.318881,24.41402 C232.318881,26.39754 232.723115,27.9233246 233.531583,28.9913738 L233.742121,29.24885 C234.690948,30.3232567 236.044421,30.86046 237.802541,30.86046 Z M256.130612,30.86046 C257.498038,30.86046 258.928255,30.52558 260.421262,29.85582 C261.541017,29.3535 262.633301,28.6549613 263.698115,27.7602038 L264.17846,27.33876 L264.753772,30.65116 L271.618812,30.35814 L271.618812,27.76282 L268.64656,26.96748 L268.646752,7.96304 L260.693352,8.25606 L260.693352,10.85138 L263.62336,11.67402 L263.62336,24.5578 L263.569732,24.6070886 C262.852132,25.2506505 262.134532,25.7589505 261.416932,26.1319886 L260.986372,26.33958 C259.981732,26.7860867 259.060812,27.00934 258.223612,27.00934 C257.135252,27.00934 256.263168,26.6674833 255.607362,25.98377 C254.951555,25.3000567 254.623652,24.24658 254.623652,22.82334 L254.623652,22.82334 L254.623652,7.96304 L246.670252,8.25606 L246.670252,10.85138 L249.60026,11.67402 L249.600452,23.66054 C249.600452,25.9265613 250.141345,27.6516895 251.223131,28.8359244 L251.463222,29.08141 C252.705068,30.2674433 254.260865,30.86046 256.130612,30.86046 Z M286.932962,30.4 L286.932962,27.80468 L283.29028,27.01844 L283.29028,14.24568 L283.628348,13.8815789 C284.021367,13.4792578 284.43706,13.1205408 284.875427,12.8054281 L285.321352,12.50485 C286.228319,11.9327633 287.156215,11.64672 288.105042,11.64672 C288.300389,11.64672 288.495735,11.6606733 288.691082,11.68858 L288.691082,11.68858 L288.89406,11.7268 L289.360842,15.28854 L292.291042,15.28854 L292.625922,8.08862 C291.649189,7.80955333 290.714315,7.67002 289.821302,7.67002 C288.398062,7.67002 287.079472,8.02583 285.865532,8.73745 C284.955077,9.271165 284.032849,9.97362813 283.098848,10.8448394 L282.7097,11.21902 L282.160922,7.92118 L275.295882,8.25606 L275.295882,10.85138 L278.26708,11.65582 L278.26708,27.01662 L275.295882,27.80468 L275.295882,30.4 L286.932962,30.4 Z M305.512193,30.86046 C307.074966,30.86046 308.679599,30.58837 310.326093,30.04419 C311.972586,29.50001 313.591173,28.68374 315.181853,27.59538 L315.181853,27.59538 L313.465593,24.87448 C312.237699,25.62796 311.051666,26.1860933 309.907493,26.54888 C308.763319,26.9116667 307.702866,27.09306 306.726133,27.09306 C305.358706,27.09306 304.228486,26.7442267 303.335473,26.04656 C302.442459,25.3488933 301.786653,24.39309 301.368053,23.17915 C301.054103,22.268695 300.857884,21.2522819 300.779396,20.1299106 L300.77684,20.10244 L315.139993,20.10244 C315.195806,19.76756 315.239216,19.4512844 315.270224,19.1536133 L315.307433,18.72106 C315.335339,18.30246 315.349293,17.88386 315.349293,17.46526 C315.349293,15.5955133 315.028366,13.9211133 314.386513,12.44206 C313.744659,10.9630067 312.760949,9.79790333 311.435383,8.94675 C310.109816,8.09559667 308.400533,7.67002 306.307533,7.67002 C304.102906,7.67002 302.198276,8.15141 300.593643,9.11419 C298.989009,10.07697 297.747163,11.4513733 296.868103,13.2374 C295.989043,15.0234267 295.549513,17.1582867 295.549513,19.64198 C295.549513,22.06986 295.968113,24.121 296.805313,25.7954 C297.642513,27.4698 298.814593,28.7325767 300.321553,29.58373 C301.828513,30.4348833 303.558726,30.86046 305.512193,30.86046 Z M310.15894,16.92108 L300.87148,16.92108 L300.91101,16.6348943 C300.967962,16.270399 301.039153,15.9184333 301.124581,15.5789971 L301.263403,15.07924 C301.612236,13.9350667 302.170369,13.0281 302.937803,12.35834 C303.705236,11.68858 304.688946,11.3537 305.888933,11.3537 C306.949386,11.3537 307.800539,11.6188133 308.442393,12.14904 C309.084246,12.6792667 309.537729,13.3908867 309.802843,14.2839 C310.067956,15.1769133 310.186559,16.1815533 310.158653,17.29782 L310.15894,16.92108 Z M184.06752,75.9 C186.551213,75.9 188.616307,75.5720967 190.2628,74.91629 C191.909293,74.2604833 193.137187,73.32561 193.94648,72.11167 C194.755773,70.89773 195.16042,69.45356 195.16042,67.77916 C195.16042,66.1605733 194.790657,64.8350067 194.05113,63.80246 C193.311603,62.7699133 192.25115,62.00248 190.86977,61.50016 C190.102337,61.2210933 189.246618,61.0152386 188.302615,60.8825958 L187.89862,60.83404 L188.183753,60.76761 C189.623737,60.407614 190.792469,59.8743176 191.689947,59.1677208 L191.97906,58.92577 C193.374393,57.6839233 194.07206,55.9606867 194.07206,53.75606 C194.07206,52.1374733 193.709273,50.7909767 192.9837,49.71657 C192.258127,48.6421633 191.197673,47.8398467 189.80234,47.30962 C188.407007,46.7793933 186.690747,46.51428 184.65356,46.51428 L184.65356,46.51428 L180.04896,46.51428 L171.8444,46.72358 L171.8444,49.3189 L175.10948,50.14336 L175.10948,72.44746 L171.8444,73.30468 L171.8444,75.9 L184.06752,75.9 Z M180.25826,50.1561 L183.64892,50.1561 C184.709373,50.1561 185.630293,50.2956333 186.41168,50.5747 C187.193067,50.8537667 187.800037,51.30725 188.23259,51.93515 C188.665143,52.56305 188.88142,53.4072267 188.88142,54.46768 C188.88142,55.5839467 188.623283,56.4839367 188.10701,57.16765 C187.590737,57.8513633 186.87214,58.3467067 185.95122,58.65368 C185.0303,58.9606533 183.94194,59.11414 182.68614,59.11414 L182.68614,59.11414 L180.25826,59.11596 L180.25826,50.1561 Z M180.25826,62.75596 L184.69542,62.75596 C185.70006,62.75596 186.593073,62.9094467 187.37446,63.21642 C188.155847,63.5233933 188.77677,64.0257133 189.23723,64.72338 C189.69769,65.4210467 189.92792,66.3280133 189.92792,67.44428 C189.92792,68.5884533 189.669783,69.5093733 189.15351,70.20704 C188.637237,70.9047067 187.904687,71.4140033 186.95586,71.73493 C186.007033,72.0558567 184.90472,72.21632 183.64892,72.21632 L183.64892,72.21632 L180.25826,72.21632 L180.25826,62.75596 Z M205.786251,76.36046 C207.125771,76.36046 208.472267,76.02558 209.825741,75.35582 C211.179214,74.68606 212.428037,73.6674667 213.572211,72.30004 L213.30764,72.60398 L213.907091,76.19302 L220.772131,75.85814 L220.772131,73.26282 L217.7994,72.46202 L217.800071,59.82576 C217.800071,57.6899698 217.216635,56.0829179 216.049764,55.0046043 L215.790791,54.78163 C214.451271,53.7072233 212.553617,53.17002 210.097831,53.17002 C208.814124,53.17002 207.418791,53.3025767 205.911831,53.56769 C204.404871,53.8328033 202.744424,54.2304733 200.930491,54.7607 L200.930491,54.7607 L201.265371,60.6211 L204.488591,60.6211 L204.92472,57.5271 L205.379371,57.3928568 C205.694159,57.305788 205.998899,57.2309981 206.293594,57.1684872 L206.728101,57.08393 C207.439721,56.95835 208.116457,56.89556 208.758311,56.89556 C210.042017,56.89556 211.032704,57.1955567 211.730371,57.79555 C212.428037,58.3955433 212.776871,59.3792533 212.776871,60.74668 L212.776871,60.74668 L212.7762,63.46758 L208.339711,63.46758 C206.752519,63.46758 205.373646,63.6224838 204.203092,63.9322914 L203.714181,64.07455 C202.444427,64.4791967 201.460717,65.14198 200.763051,66.0629 C200.065384,66.98382 199.716551,68.2535733 199.716551,69.87216 C199.716551,71.9930667 200.302591,73.6046767 201.474671,74.70699 C202.646751,75.8093033 204.083944,76.36046 205.786251,76.36046 Z M207.979202,72.6614029 L207.628091,72.67678 C206.790891,72.67678 206.107177,72.4116667 205.576951,71.88144 C205.046724,71.3512133 204.781611,70.5279667 204.781611,69.4117 C204.781611,68.3791533 205.095561,67.61172 205.723461,67.1094 C206.351361,66.60708 207.488557,66.35592 209.135051,66.35592 L209.135051,66.35592 L212.7762,66.35592 L212.7762,70.14152 L212.579198,70.3186667 C211.977655,70.8395911 211.363708,71.2860978 210.737358,71.6581867 L210.265271,71.9233 C209.316444,72.42562 208.437384,72.67678 207.628091,72.67678 L207.979202,72.6614029 Z M234.621181,75.9 L234.621181,73.30468 L231.64778,72.53482 L231.649121,43.41664 L223.695721,43.75152 L223.695721,46.34684 L226.62458,47.0894 L226.62458,72.53482 L223.695721,73.30468 L223.695721,75.9 L234.621181,75.9 Z M244.242372,76.36046 C245.581892,76.36046 246.928388,76.02558 248.281862,75.35582 C249.635335,74.68606 250.884158,73.6674667 252.028332,72.30004 L251.76424,72.60398 L252.363212,76.19302 L259.228252,75.85814 L259.228252,73.26282 L256.256,72.46202 L256.256192,59.82576 C256.256192,57.6899698 255.672756,56.0829179 254.505885,55.0046043 L254.246912,54.78163 C252.907392,53.7072233 251.009738,53.17002 248.553952,53.17002 C247.270245,53.17002 245.874912,53.3025767 244.367952,53.56769 C242.860992,53.8328033 241.200545,54.2304733 239.386612,54.7607 L239.386612,54.7607 L239.721492,60.6211 L242.944712,60.6211 L243.38132,57.5271 L243.835492,57.3928568 C244.15028,57.305788 244.45502,57.2309981 244.749715,57.1684872 L245.184222,57.08393 C245.895842,56.95835 246.572578,56.89556 247.214432,56.89556 C248.498138,56.89556 249.488825,57.1955567 250.186492,57.79555 C250.884158,58.3955433 251.232992,59.3792533 251.232992,60.74668 L251.232992,60.74668 L251.2328,63.46758 L246.795832,63.46758 C245.20864,63.46758 243.829767,63.6224838 242.659213,63.9322914 L242.170302,64.07455 C240.900548,64.4791967 239.916838,65.14198 239.219172,66.0629 C238.521505,66.98382 238.172672,68.2535733 238.172672,69.87216 C238.172672,71.9930667 238.758712,73.6046767 239.930792,74.70699 C241.102872,75.8093033 242.540065,76.36046 244.242372,76.36046 Z M246.435323,72.6614029 L246.084212,72.67678 C245.247012,72.67678 244.563298,72.4116667 244.033072,71.88144 C243.502845,71.3512133 243.237732,70.5279667 243.237732,69.4117 C243.237732,68.3791533 243.551682,67.61172 244.179582,67.1094 C244.807482,66.60708 245.944678,66.35592 247.591172,66.35592 L247.591172,66.35592 L251.2328,66.35592 L251.2328,70.14152 L251.035319,70.3186667 C250.433776,70.8395911 249.819829,71.2860978 249.193479,71.6581867 L248.721392,71.9233 C247.772565,72.42562 246.893505,72.67678 246.084212,72.67678 L246.435323,72.6614029 Z M273.412182,75.9 L273.412182,73.30468 L270.69042,72.56212 L270.69042,59.47268 L270.733996,59.43407 C271.434511,58.80617 272.142144,58.3028533 272.856896,57.92412 L273.286602,57.71183 C274.291242,57.25137 275.212162,57.02114 276.049362,57.02114 C277.137722,57.02114 278.009805,57.3699733 278.665612,58.06764 C279.321419,58.7653067 279.649322,59.8536667 279.649322,61.33272 L279.649322,61.33272 L279.64846,72.59124 L276.928422,73.30468 L276.928422,75.9 L287.644582,75.9 L287.644582,73.30468 L284.67166,72.48022 L284.672522,60.24436 C284.698568,58.0304311 284.171566,56.3391631 283.091516,55.1705559 L282.851612,54.92814 C281.609765,53.75606 280.053969,53.17002 278.184222,53.17002 C276.816795,53.17002 275.379602,53.4979233 273.872642,54.15373 C272.700562,54.6638019 271.570687,55.3975577 270.483016,56.3549975 L270.10074,56.70264 L269.561062,53.42118 L262.696022,53.75606 L262.696022,56.35138 L265.66722,57.14672 L265.66722,72.50934 L262.696022,73.30468 L262.696022,75.9 L273.412182,75.9 Z M301.116893,76.36046 C302.595946,76.36046 304.102906,76.0813933 305.637773,75.52326 C307.172639,74.9651267 308.693553,74.10002 310.200513,72.92794 L310.200513,72.92794 L308.526113,70.33262 C307.381939,71.0861 306.279626,71.6581867 305.219173,72.04888 C304.158719,72.4395733 303.168033,72.63492 302.247113,72.63492 C301.102939,72.63492 300.084346,72.3279467 299.191333,71.714 C298.298319,71.1000533 297.607629,70.20704 297.119263,69.03496 C296.630896,67.86288 296.386713,66.4117333 296.386713,64.68152 C296.386713,63.0629333 296.609966,61.6676 297.056473,60.49552 C297.502979,59.32344 298.165763,58.4094967 299.044823,57.75369 C299.923883,57.0978833 301.005266,56.76998 302.288973,56.76998 C302.819199,56.76998 303.412216,56.8257933 304.068023,56.93742 C304.723829,57.0490467 305.316846,57.2164867 305.847073,57.43974 L305.46516,57.29414 L306.014513,60.66296 L309.279593,60.66296 L309.447033,54.84442 C308.554019,54.3700067 307.437753,53.9723367 306.098233,53.65141 C304.758713,53.3304833 303.461053,53.17002 302.205253,53.17002 C300.809919,53.17002 299.449469,53.3862967 298.123903,53.81885 C296.798336,54.2514033 295.612303,54.9351167 294.565803,55.86999 C293.519303,56.8048633 292.689079,58.0188033 292.075133,59.51181 C291.461186,61.0048167 291.154213,62.8257267 291.154213,64.97454 C291.154213,67.3745133 291.586766,69.4256533 292.451873,71.12796 C293.316979,72.8302667 294.503013,74.1279267 296.009973,75.02094 C297.516933,75.9139533 299.219239,76.36046 301.116893,76.36046 Z M323.589103,76.36046 C325.151876,76.36046 326.75651,76.08837 328.403003,75.54419 C330.049496,75.00001 331.668083,74.18374 333.258763,73.09538 L333.258763,73.09538 L331.542503,70.37448 C330.31461,71.12796 329.128576,71.6860933 327.984403,72.04888 C326.84023,72.4116667 325.779776,72.59306 324.803043,72.59306 C323.435616,72.59306 322.305396,72.2442267 321.412383,71.54656 C320.51937,70.8488933 319.863563,69.89309 319.444963,68.67915 C319.131013,67.768695 318.934794,66.7522819 318.856307,65.6299106 L318.85308,65.60244 L333.216903,65.60244 C333.272716,65.26756 333.316127,64.9512844 333.347134,64.6536133 L333.384343,64.22106 C333.41225,63.80246 333.426203,63.38386 333.426203,62.96526 C333.426203,61.0955133 333.105276,59.4211133 332.463423,57.94206 C331.82157,56.4630067 330.83786,55.2979033 329.512293,54.44675 C328.186726,53.5955967 326.477443,53.17002 324.384443,53.17002 C322.179816,53.17002 320.275186,53.65141 318.670553,54.61419 C317.06592,55.57697 315.824073,56.9513733 314.945013,58.7374 C314.065953,60.5234267 313.626423,62.6582867 313.626423,65.14198 C313.626423,67.56986 314.045023,69.621 314.882223,71.2954 C315.719423,72.9698 316.891503,74.2325767 318.398463,75.08373 C319.905423,75.9348833 321.635636,76.36046 323.589103,76.36046 Z M328.237,62.4229 L318.94954,62.4229 L318.98792,62.1348943 C319.044873,61.770399 319.116063,61.4184333 319.201492,61.0789971 L319.340313,60.57924 C319.689146,59.4350667 320.24728,58.5281 321.014713,57.85834 C321.782146,57.18858 322.765856,56.8537 323.965843,56.8537 C325.026296,56.8537 325.87745,57.1188133 326.519303,57.64904 C327.161156,58.1792667 327.61464,58.8908867 327.879753,59.7839 C328.144866,60.6769133 328.26347,61.6815533 328.235563,62.79782 L328.237,62.4229 Z" id="NatureBalance" fill-rule="nonzero"></path><rect id="Rectangle-Copy-52" x="0" y="0.0639108554" width="151.743003" height="17.9400594"></rect><circle id="Oval-Copy" cx="124.081981" cy="50.4208307" r="26.0630894"></circle></g></g></g></svg>